<svg width="56" height="43" viewBox="0 0 56 43" fill="none" xmlns="http://www.w3.org/2000/svg">
<path d="M53.8695 19.5327H53.1846C53.2719 19.0916 53.3175 18.6493 53.3175 18.2092C53.3175 16.0535 52.5337 14.0181 51.1104 12.4779C49.8712 11.1368 48.2176 10.2382 46.3975 9.90485C46.2529 8.35569 45.777 6.98932 44.9792 5.83512C44.7222 5.46357 44.2115 5.36951 43.8384 5.62523C43.4651 5.88085 43.3708 6.38925 43.6275 6.7607C44.36 7.82018 44.7544 9.12624 44.7997 10.6425C44.8119 11.052 45.1269 11.3888 45.5361 11.4305C49.0942 11.7928 51.6767 14.6437 51.6767 18.2092C51.6767 18.6469 51.6178 19.0902 51.5032 19.5327H42.2658C42.2754 18.5525 42.0852 17.5746 41.7022 16.661C40.1504 12.9728 35.8733 11.2273 32.1668 12.7704C32.0272 12.8287 31.8904 12.8926 31.7548 12.9589C31.4249 12.3651 31.0247 11.81 30.5586 11.3058C29.5273 10.1902 28.2205 9.36956 26.7705 8.90568C26.8274 8.79627 26.8872 8.68816 26.9526 8.58267C28.1956 6.60361 30.8077 5.7206 33.027 6.52892C33.3469 6.6453 33.7051 6.5532 33.9281 6.29748C35.6371 4.33855 38.5803 3.69254 41.0856 4.72611C41.5044 4.89899 41.9841 4.70118 42.1575 4.28455C42.3311 3.86803 42.1325 3.39033 41.7139 3.21767C38.9998 2.09766 35.8672 2.55838 33.6673 4.29729C32.061 0.716697 27.8561 -0.959289 24.2043 0.561237C23.3087 0.933775 22.4972 1.48224 21.822 2.16548C20.5196 1.36869 18.9814 0.949452 17.3719 0.975906C13.5578 1.03023 9.6962 3.66761 9.35375 8.61827C7.44844 8.96414 5.71725 9.903 4.42105 11.3059C2.9365 12.913 2.11881 15.0369 2.11881 17.2863C2.11881 18.0411 2.24 18.7929 2.47855 19.5327H2.12997C0.955719 19.5327 0 20.4839 0 21.6531V33.1803C0 38.5949 4.42619 43 9.86672 43H46.1333C51.5738 43 56 38.5949 56 33.1803V21.6531C56 20.4839 55.0443 19.5327 53.8695 19.5327ZM32.8008 14.2765C35.6723 13.0812 38.9867 14.4337 40.1888 17.2908C40.4878 18.0039 40.6351 18.7676 40.6253 19.5326H32.5015C32.7411 18.79 32.8627 18.0383 32.8627 17.2862C32.8627 16.3089 32.7078 15.3554 32.4112 14.4575C32.5388 14.3932 32.6683 14.3318 32.8008 14.2765ZM24.8373 2.06783C27.5506 0.938456 30.6577 2.08536 32.0066 4.62759C29.4844 4.35608 26.9416 5.51985 25.5593 7.72068C25.54 7.75159 25.5219 7.78306 25.5032 7.8143C25.1883 5.95259 24.3822 4.37143 23.1323 3.17477C23.626 2.70916 24.2038 2.33139 24.8373 2.06783ZM10.2332 10.1421C10.6516 10.0995 10.9698 9.74917 10.9702 9.33058C10.9746 4.77499 14.304 2.65265 17.3957 2.60867C17.4299 2.60824 17.4642 2.60791 17.4985 2.60791C20.6565 2.60791 23.8702 4.68213 24.0089 9.35399C24.021 9.76343 24.3362 10.1005 24.7454 10.1421C28.4983 10.5236 31.222 13.5282 31.222 17.2863C31.222 18.0336 31.0653 18.7872 30.7558 19.5327H18.3113V17.7482L22.45 15.4002C22.8436 15.1769 22.9809 14.6783 22.7565 14.2866C22.5321 13.8948 22.0311 13.7583 21.6377 13.9815L18.3115 15.8687V10.8072C18.3115 10.3562 17.9443 9.99074 17.4911 9.99074C17.038 9.99074 16.6708 10.3562 16.6708 10.8072V15.8692L13.3412 13.9814C12.9478 13.758 12.4468 13.8949 12.2224 14.2868C11.9981 14.6786 12.1355 15.1772 12.5292 15.4004L16.6708 17.7485V19.5328H4.22483C3.91606 18.7917 3.75987 18.0382 3.75987 17.2864C3.75987 13.528 6.48233 10.5235 10.2332 10.1421ZM54.3594 29.6941H14.6436C14.1904 29.6941 13.8232 30.0596 13.8232 30.5106C13.8232 30.9616 14.1904 31.3271 14.6436 31.3271H54.3594V33.1802C54.3594 37.6944 50.6692 41.3669 46.1333 41.3669H9.86672C5.33083 41.3669 1.64062 37.6944 1.64062 33.1802V31.3271H10.8407C11.2938 31.3271 11.661 30.9616 11.661 30.5106C11.661 30.0596 11.2938 29.6941 10.8407 29.6941H1.64062V26.2883H54.3594V29.6941ZM54.3594 24.6553H1.64062V21.6531C1.64062 21.3889 1.86495 21.1656 2.13052 21.1656H3.69895H31.2831H52.111H53.8696C54.1352 21.1656 54.3595 21.3889 54.3595 21.6531V24.6553H54.3594Z" fill="#90C12D"/>
</svg>
