<svg width="49" height="43" viewBox="0 0 49 43" fill="none" xmlns="http://www.w3.org/2000/svg">
<path d="M19.341 31.7535C19.341 29.4721 17.9603 27.6851 16.1979 27.6851C14.4354 27.6851 13.0547 29.4721 13.0547 31.7535C13.0547 34.0349 14.4353 35.8218 16.1979 35.8218C17.9604 35.8218 19.341 34.0348 19.341 31.7535ZM14.4901 31.7535C14.4901 30.3263 15.2721 29.1204 16.1979 29.1204C17.1236 29.1204 17.9056 30.3262 17.9056 31.7535C17.9056 33.1807 17.1235 34.3865 16.1979 34.3865C15.2721 34.3864 14.4901 33.1807 14.4901 31.7535Z" fill="#90C12D"/>
<path d="M31.0705 31.7535C31.0705 29.4721 29.6898 27.6851 27.9274 27.6851C26.1649 27.6851 24.7842 29.4721 24.7842 31.7535C24.7842 34.0349 26.1648 35.8218 27.9274 35.8218C29.6899 35.8218 31.0705 34.0348 31.0705 31.7535ZM26.2196 31.7535C26.2196 30.3263 27.0016 29.1204 27.9274 29.1204C28.8531 29.1204 29.6351 30.3262 29.6351 31.7535C29.6351 33.1807 28.853 34.3865 27.9274 34.3865C27.0017 34.3865 26.2196 33.1807 26.2196 31.7535Z" fill="#90C12D"/>
<path d="M13.0331 20.1567C12.6367 20.1567 12.3154 20.478 12.3154 20.8744V22.6092C12.3154 23.0056 12.6368 23.3269 13.0331 23.3269C13.4294 23.3269 13.7508 23.0056 13.7508 22.6092V20.8744C13.7508 20.478 13.4294 20.1567 13.0331 20.1567Z" fill="#90C12D"/>
<path d="M31.0888 20.1567C30.6924 20.1567 30.3711 20.478 30.3711 20.8744V22.6092C30.3711 23.0056 30.6925 23.3269 31.0888 23.3269C31.4852 23.3269 31.8064 23.0056 31.8064 22.6092V20.8744C31.8064 20.478 31.4852 20.1567 31.0888 20.1567Z" fill="#90C12D"/>
<path d="M24.3797 35.7635C24.6401 35.4648 24.609 35.0113 24.3102 34.7509C24.0113 34.4905 23.558 34.5215 23.2976 34.8204C22.6453 35.5688 21.484 35.5708 20.8301 34.8204C20.5696 34.5216 20.1162 34.4905 19.8174 34.7509C19.5186 35.0113 19.4875 35.4647 19.7479 35.7635C20.9711 37.167 23.153 37.1711 24.3797 35.7635Z" fill="#90C12D"/>
<path d="M41.8829 21.3752C41.3031 20.8112 40.3945 20.8112 39.8144 21.3752C39.2224 21.9509 38.6662 22.528 38.1455 23.1058C37.9846 21.1491 37.7359 19.3269 37.4009 17.6405C39.3509 16.9101 40.901 15.92 42.0117 14.6908C42.2775 14.3966 42.2544 13.9428 41.9603 13.6771C41.6662 13.4113 41.2123 13.4344 40.9467 13.7285C40.0281 14.7452 38.7356 15.5818 37.0977 16.2212C36.7688 14.8442 36.3738 13.559 35.9187 12.387C37.5378 10.136 39.9625 8.47719 42.4816 7.26645C42.7779 8.17199 42.8074 10.0304 42.2726 11.5256C42.1391 11.8988 42.3334 12.3096 42.7066 12.4431C43.0801 12.5766 43.4907 12.3823 43.6241 12.009C44.0806 10.733 44.2251 9.31028 44.0536 7.78095C43.9811 7.13064 43.7826 6.51738 43.4639 5.95847C43.4638 5.95838 43.4638 5.95819 43.4637 5.95799C43.4637 5.95799 43.4636 5.9579 43.4636 5.9578C43.4634 5.95742 43.4641 5.95866 43.4617 5.95465C42.305 3.92086 39.8615 3.02144 37.6504 3.81597L31.7805 5.92278C31.1039 5.28511 30.3696 4.72926 29.591 4.26252C29.3477 3.18969 28.9846 2.12777 28.5072 1.10135C27.8236 -0.36817 25.7437 -0.366064 25.0611 1.10135C24.8445 1.56695 24.6526 2.0402 24.4832 2.51804C22.9841 2.3142 21.2199 2.30338 19.6418 2.51804C19.4725 2.0401 19.2805 1.56695 19.064 1.10135C18.3804 -0.36817 16.3004 -0.366064 15.6179 1.10135C15.1404 2.12786 14.7773 3.18978 14.534 4.26252C13.7555 4.72936 13.0212 5.28511 12.3445 5.92278L6.47479 3.81587C4.26348 3.02125 1.81999 3.92076 0.66313 5.95445C0.662747 5.95512 0.662269 5.9557 0.661886 5.95646C0.661695 5.95685 0.661503 5.95723 0.661216 5.95761C0.66112 5.95771 0.66112 5.9578 0.661025 5.9578C0.601115 6.09351 0.190644 6.70926 0.0712066 7.78028C-0.470951 12.614 2.11514 15.9166 6.72544 17.6416C6.18013 20.3884 5.75358 24.2238 5.75358 28.9208C5.75358 33.2297 8.06528 37.2123 12.0961 39.8474C12.4279 40.0643 12.8727 39.9712 13.0896 39.6394C13.3065 39.3076 13.2133 38.8629 12.8816 38.646C9.45078 36.4031 7.18357 32.955 7.18922 28.8167C14.9482 24.3633 26.0696 23.8057 34.7628 27.7146C33.1401 30.5789 32.0726 34.0761 33.1003 37.2033C30.277 39.8028 26.2826 41.2855 22.0624 41.2855C19.7304 41.2855 17.4966 40.8482 15.4228 39.9855C15.0572 39.8333 14.6368 40.0065 14.4846 40.3725C14.3323 40.7385 14.5056 41.1585 14.8716 41.3108C17.1209 42.2465 19.5403 42.7209 22.0624 42.7209C26.4664 42.7209 30.6548 41.2204 33.7148 38.5767C35.0572 40.8914 37.601 42.1989 40.8488 42.1989C49.6103 42.1993 53.2163 32.3969 41.8829 21.3752ZM35.5179 26.4799C32.3699 25.0399 28.899 24.1583 25.5076 23.8323C24.5902 17.7126 27.0912 11.011 31.5063 7.6974C35.321 11.9573 36.486 18.9552 36.8176 24.679C36.3451 25.2794 35.9117 25.8799 35.5179 26.4799ZM38.1355 5.16682C39.4331 4.70065 40.8437 5.06365 41.7456 6.02747C39.363 7.17237 36.967 8.80832 35.2701 10.8767C34.6309 9.52839 33.8087 8.18749 32.8571 7.06145L38.1355 5.16682ZM27.2056 1.70677C27.6846 2.73625 28.0381 3.80314 28.2565 4.87779C28.4422 5.79224 27.7321 6.65864 26.784 6.65864C25.8394 6.65864 25.1251 5.79578 25.3116 4.87779C25.5221 3.84296 25.8751 2.75472 26.3626 1.70677C26.4764 1.46186 27.0363 1.34291 27.2056 1.70677ZM16.9193 1.70677C17.0872 1.34578 17.5931 1.34291 17.7623 1.70677C18.3345 2.93674 18.7325 4.32023 18.8253 4.96077C18.8842 5.36846 18.772 5.78123 18.5074 6.10499C17.9038 6.84344 16.7768 6.84258 16.1741 6.10499C15.6963 5.52034 15.8684 4.86669 15.8687 4.87626C16.0871 3.80219 16.4405 2.73586 16.9193 1.70677ZM14.5197 5.98584C15.1876 8.26453 18.1345 8.82976 19.619 7.01331C20.5576 5.86478 20.2199 4.58092 20.2196 4.59049C20.1758 4.37535 20.1082 4.08308 20.0645 3.91024C21.3233 3.75941 22.7919 3.75816 24.0604 3.91024C24.0493 3.95416 23.9591 4.32578 23.9051 4.59193C23.5369 6.4032 24.9352 8.09418 26.7842 8.09418C28.1101 8.09418 29.2454 7.21467 29.6053 5.98584C29.9044 6.20012 30.1948 6.43038 30.4754 6.67577C25.5959 10.4407 23.2321 17.5339 24.0413 23.7183C23.0489 23.6536 21.4936 23.6388 20.084 23.7183C20.3683 21.5466 20.2538 19.2857 19.8196 17.1827C18.9891 13.1607 16.9259 9.20395 13.6498 6.67577C13.9301 6.43038 14.2205 6.20012 14.5197 5.98584ZM7.20836 27.1682C7.34962 20.7761 8.33402 12.4737 12.6185 7.6974C15.6689 9.98518 17.6483 13.7685 18.4136 17.4731C18.8386 19.5308 18.9346 21.7121 18.6172 23.8322C14.685 24.2213 10.7254 25.3061 7.20836 27.1682ZM5.98958 5.16691L11.2678 7.06155C10.3121 8.19295 9.50198 9.51183 8.85474 10.8768C7.1541 8.80382 4.78391 7.18912 2.37918 6.02747C3.28118 5.06355 4.69175 4.70046 5.98958 5.16691ZM1.49785 7.93981C1.52369 7.70764 1.5724 7.48264 1.64313 7.26635C4.15409 8.47307 6.56964 10.1197 8.20606 12.3869C7.751 13.5592 7.35574 14.8446 7.027 16.2215C2.9201 14.6223 1.06049 11.8393 1.49785 7.93981ZM40.8487 40.7639C32.9726 40.7639 30.8882 32.0585 40.8152 22.4042C40.8245 22.3951 40.8366 22.3905 40.8487 22.3905C40.8607 22.3905 40.8727 22.3951 40.8822 22.4042C50.9024 32.149 48.6231 40.7639 40.8487 40.7639Z" fill="#90C12D"/>
<path d="M41.8829 21.3752C41.3031 20.8112 40.3945 20.8112 39.8144 21.3752C39.2224 21.9509 38.6662 22.528 38.1455 23.1058C37.9846 21.1491 37.7359 19.3269 37.4009 17.6405C39.3509 16.9101 40.901 15.92 42.0117 14.6908C42.2775 14.3966 42.2544 13.9428 41.9603 13.6771C41.6662 13.4113 41.2123 13.4344 40.9467 13.7285C40.0281 14.7452 38.7356 15.5818 37.0977 16.2212C36.7688 14.8442 36.3738 13.559 35.9187 12.387C37.5378 10.136 39.9625 8.47719 42.4816 7.26645C42.7779 8.17199 42.8074 10.0304 42.2726 11.5256C42.1391 11.8988 42.3334 12.3096 42.7066 12.4431C43.0801 12.5766 43.4907 12.3823 43.6241 12.009C44.0806 10.733 44.2251 9.31028 44.0536 7.78095C43.9811 7.13064 43.7826 6.51738 43.4639 5.95847C43.4638 5.95838 43.4638 5.95819 43.4637 5.95799C43.4637 5.95799 43.4636 5.9579 43.4636 5.9578C43.4634 5.95742 43.4641 5.95866 43.4617 5.95465C42.305 3.92086 39.8615 3.02144 37.6504 3.81597L31.7805 5.92278C31.1039 5.28511 30.3696 4.72926 29.591 4.26252C29.3477 3.18969 28.9846 2.12777 28.5072 1.10135C27.8236 -0.36817 25.7437 -0.366064 25.0611 1.10135C24.8445 1.56695 24.6526 2.0402 24.4832 2.51804C22.9841 2.3142 21.2199 2.30338 19.6418 2.51804C19.4725 2.0401 19.2805 1.56695 19.064 1.10135C18.3804 -0.36817 16.3004 -0.366064 15.6179 1.10135C15.1404 2.12786 14.7773 3.18978 14.534 4.26252C13.7555 4.72936 13.0212 5.28511 12.3445 5.92278L6.47479 3.81587C4.26348 3.02125 1.81999 3.92076 0.66313 5.95445C0.662747 5.95512 0.662269 5.9557 0.661886 5.95646C0.661695 5.95685 0.661503 5.95723 0.661216 5.95761C0.66112 5.95771 0.66112 5.9578 0.661025 5.9578C0.601115 6.09351 0.190644 6.70926 0.0712066 7.78028C-0.470951 12.614 2.11514 15.9166 6.72544 17.6416C6.18013 20.3884 5.75358 24.2238 5.75358 28.9208C5.75358 33.2297 8.06528 37.2123 12.0961 39.8474C12.4279 40.0643 12.8727 39.9712 13.0896 39.6394C13.3065 39.3076 13.2133 38.8629 12.8816 38.646C9.45078 36.4031 7.18357 32.955 7.18922 28.8167C14.9482 24.3633 26.0696 23.8057 34.7628 27.7146C33.1401 30.5789 32.0726 34.0761 33.1003 37.2033C30.277 39.8028 26.2826 41.2855 22.0624 41.2855C19.7304 41.2855 17.4966 40.8482 15.4228 39.9855C15.0572 39.8333 14.6368 40.0065 14.4846 40.3725C14.3323 40.7385 14.5056 41.1585 14.8716 41.3108C17.1209 42.2465 19.5403 42.7209 22.0624 42.7209C26.4664 42.7209 30.6548 41.2204 33.7148 38.5767C35.0572 40.8914 37.601 42.1989 40.8488 42.1989C49.6103 42.1993 53.2163 32.3969 41.8829 21.3752ZM35.5179 26.4799C32.3699 25.0399 28.899 24.1583 25.5076 23.8323C24.5902 17.7126 27.0912 11.011 31.5063 7.6974C35.321 11.9573 36.486 18.9552 36.8176 24.679C36.3451 25.2794 35.9117 25.8799 35.5179 26.4799ZM38.1355 5.16682C39.4331 4.70065 40.8437 5.06365 41.7456 6.02747C39.363 7.17237 36.967 8.80832 35.2701 10.8767C34.6309 9.52839 33.8087 8.18749 32.8571 7.06145L38.1355 5.16682ZM27.2056 1.70677C27.6846 2.73625 28.0381 3.80314 28.2565 4.87779C28.4422 5.79224 27.7321 6.65864 26.784 6.65864C25.8394 6.65864 25.1251 5.79578 25.3116 4.87779C25.5221 3.84296 25.8751 2.75472 26.3626 1.70677C26.4764 1.46186 27.0363 1.34291 27.2056 1.70677ZM16.9193 1.70677C17.0872 1.34578 17.5931 1.34291 17.7623 1.70677C18.3345 2.93674 18.7325 4.32023 18.8253 4.96077C18.8842 5.36846 18.772 5.78123 18.5074 6.10499C17.9038 6.84344 16.7768 6.84258 16.1741 6.10499C15.6963 5.52034 15.8684 4.86669 15.8687 4.87626C16.0871 3.80219 16.4405 2.73586 16.9193 1.70677ZM14.5197 5.98584C15.1876 8.26453 18.1345 8.82976 19.619 7.01331C20.5576 5.86478 20.2199 4.58092 20.2196 4.59049C20.1758 4.37535 20.1082 4.08308 20.0645 3.91024C21.3233 3.75941 22.7919 3.75816 24.0604 3.91024C24.0493 3.95416 23.9591 4.32578 23.9051 4.59193C23.5369 6.4032 24.9352 8.09418 26.7842 8.09418C28.1101 8.09418 29.2454 7.21467 29.6053 5.98584C29.9044 6.20012 30.1948 6.43038 30.4754 6.67577C25.5959 10.4407 23.2321 17.5339 24.0413 23.7183C23.0489 23.6536 21.4936 23.6388 20.084 23.7183C20.3683 21.5466 20.2538 19.2857 19.8196 17.1827C18.9891 13.1607 16.9259 9.20395 13.6498 6.67577C13.9301 6.43038 14.2205 6.20012 14.5197 5.98584ZM7.20836 27.1682C7.34962 20.7761 8.33402 12.4737 12.6185 7.6974C15.6689 9.98518 17.6483 13.7685 18.4136 17.4731C18.8386 19.5308 18.9346 21.7121 18.6172 23.8322C14.685 24.2213 10.7254 25.3061 7.20836 27.1682ZM5.98958 5.16691L11.2678 7.06155C10.3121 8.19295 9.50198 9.51183 8.85474 10.8768C7.1541 8.80382 4.78391 7.18912 2.37918 6.02747C3.28118 5.06355 4.69175 4.70046 5.98958 5.16691ZM1.49785 7.93981C1.52369 7.70764 1.5724 7.48264 1.64313 7.26635C4.15409 8.47307 6.56964 10.1197 8.20606 12.3869C7.751 13.5592 7.35574 14.8446 7.027 16.2215C2.9201 14.6223 1.06049 11.8393 1.49785 7.93981ZM40.8487 40.7639C32.9726 40.7639 30.8882 32.0585 40.8152 22.4042C40.8245 22.3951 40.8366 22.3905 40.8487 22.3905C40.8607 22.3905 40.8727 22.3951 40.8822 22.4042C50.9024 32.149 48.6231 40.7639 40.8487 40.7639Z" fill="#90C12D"/>
</svg>
