<svg width="44" height="43" viewBox="0 0 44 43" fill="none" xmlns="http://www.w3.org/2000/svg">
<path d="M21.5164 0C9.65247 0 0 9.6451 0 21.5C0 33.3549 9.65247 43 21.5164 43C33.3804 43 43.0329 33.3549 43.0329 21.5C43.0329 9.6451 33.3804 0 21.5164 0ZM21.5164 41.6562C10.6409 41.6562 1.35425 32.3672 1.35425 21.4999C1.35425 16.3881 3.52364 11.5683 6.72925 8.0625L17.1413 18.3949C16.5147 19.2737 16.1373 20.3411 16.1373 21.5C16.1373 22.6589 16.5147 23.7263 17.1413 24.605L14.3557 27.3885C12.9916 26.6188 11.1527 26.7887 10.0158 27.9247C9.33813 28.6019 8.96521 29.5012 8.96521 30.4583C8.96521 31.4154 9.33822 32.3156 10.0158 32.9918C10.6926 33.669 11.5935 34.0416 12.5513 34.0416C13.5091 34.0416 14.41 33.6689 15.0868 32.9918C15.7645 32.3156 16.1374 31.4154 16.1374 30.4583C16.1374 29.8091 15.9533 29.1921 15.6313 28.6475L18.4092 25.8717C19.2885 26.4979 20.3566 26.875 21.5164 26.875C22.6762 26.875 23.7151 26.4146 24.5945 25.7885L34.948 36.2812C31.4396 39.4843 26.6321 41.6562 21.5164 41.6562ZM14.3443 30.4584C14.3443 30.9369 14.1578 31.3866 13.819 31.7251C13.1413 32.4023 11.9612 32.4023 11.2835 31.7251C10.9447 31.3866 10.7582 30.9369 10.7582 30.4584C10.7582 29.9798 10.9447 29.5302 11.2835 29.1916C11.6223 28.8531 12.0723 28.6667 12.5512 28.6667C13.0301 28.6667 13.4801 28.8531 13.8189 29.1916C14.1577 29.5302 14.3443 29.9798 14.3443 30.4584ZM25.1025 21.5C25.1025 22.1626 24.9094 22.7761 24.5945 23.3089L22.1824 20.8281L19.7062 18.4243C20.2395 18.1097 20.8535 17.9167 21.5165 17.9167C23.4942 17.9166 25.1025 19.5238 25.1025 21.5ZM19.7234 8.95836C19.7234 7.97071 20.528 7.16672 21.5164 7.16672C22.5048 7.16672 23.3094 7.97071 23.3094 8.95836C23.3094 9.94602 22.5048 10.75 21.5164 10.75C20.528 10.75 19.7234 9.94602 19.7234 8.95836ZM23.3268 24.5757C22.7935 24.8903 22.1795 25.0833 21.5164 25.0833C19.5387 25.0833 17.9303 23.4762 17.9303 21.4999C17.9303 20.8374 18.1235 20.2239 18.4383 19.691L23.3268 24.5757ZM36.2917 34.9375L25.921 24.5757C26.3817 23.9295 26.6672 23.2092 26.8049 22.3958H30.6081C31.009 23.9371 32.4005 25.0833 34.0668 25.0833C36.0446 25.0833 37.6529 23.4762 37.6529 21.4999C37.6529 19.5236 36.0447 17.9166 34.0668 17.9166C32.4004 17.9166 31.0089 19.0628 30.6081 20.6041H26.8049C26.4248 18.3601 24.6587 16.5953 22.413 16.2155V12.4144C23.9554 12.0138 25.1025 10.6234 25.1025 8.95828C25.1025 6.98204 23.4942 5.375 21.5164 5.375C19.5387 5.375 17.9303 6.98204 17.9303 8.95836C17.9303 10.6235 19.0774 12.014 20.6199 12.4145V16.2155C19.8058 16.3532 19.0557 16.6678 18.409 17.1282L8.073 6.71875C11.5815 3.51567 16.4007 1.34375 21.5164 1.34375C32.392 1.34375 41.6667 10.6327 41.6667 21.4999C41.6667 26.6117 39.4973 31.4317 36.2917 34.9375ZM32.2738 21.5C32.2738 20.5123 33.0784 19.7084 34.0668 19.7084C35.0552 19.7084 35.8598 20.5123 35.8598 21.5C35.8598 22.4877 35.0552 23.2916 34.0668 23.2916C33.0784 23.2916 32.2738 22.4877 32.2738 21.5Z" fill="#90C12D"/>
</svg>
