<svg width="49" height="45" viewBox="0 0 49 45" fill="none" xmlns="http://www.w3.org/2000/svg">
<path d="M34.355 31.8657H20.5415C20.1521 31.8657 19.8365 32.1811 19.8365 32.5702C19.8365 32.9594 20.1521 33.2747 20.5415 33.2747H34.355C37.0761 33.2747 39.29 31.0625 39.29 28.3435V17.7654C39.29 15.0463 37.0761 12.8342 34.355 12.8342H30.3519L21.2548 8.19399C20.3473 7.73122 19.2322 8.09257 18.7691 8.99905L16.8099 12.8342H14.1997C13.2926 12.8342 12.5547 13.5715 12.5547 14.4779V31.6309C12.5547 32.5373 13.2926 33.2746 14.1997 33.2746H17.4405C17.83 33.2746 18.1455 32.9593 18.1455 32.5701C18.1455 32.181 17.83 31.8656 17.4405 31.8656H14.1997C14.0701 31.8656 13.9646 31.7604 13.9646 31.6308V14.4778C13.9646 14.3483 14.07 14.243 14.1997 14.243H34.3549C36.2987 14.243 37.8799 15.823 37.8799 17.7653V20.0559H32.2644C30.466 20.0559 29.0029 21.5178 29.0029 23.3148V24.2538C29.0029 26.0508 30.466 27.5127 32.2644 27.5127H37.8799V28.3431C37.88 30.2856 36.2987 31.8657 34.355 31.8657ZM20.025 9.63968C20.1348 9.42482 20.3989 9.33937 20.6139 9.44886L27.2507 12.8342H18.3931L20.025 9.63968ZM32.2644 26.104C31.2435 26.104 30.4129 25.2741 30.4129 24.254V23.315C30.4129 22.2949 31.2435 21.4649 32.2644 21.4649H37.8799V26.104H32.2644Z" fill="#90C12D"/>
<path d="M46.4219 13.9252C45.2957 11.1949 43.6664 8.7457 41.5791 6.64586C41.0665 6.13022 40.5245 5.6343 39.9677 5.17181C39.6685 4.92342 39.2239 4.96399 38.9748 5.26318C38.726 5.56236 38.767 6.00654 39.0663 6.2553C39.5887 6.68924 40.0975 7.15464 40.5787 7.63873C44.5318 11.6158 46.7088 16.8938 46.7088 22.5004C46.7088 28.134 44.5133 33.4304 40.5266 37.4139C36.5401 41.3975 31.2396 43.5914 25.6016 43.5914C21.1478 43.5914 16.9058 42.2294 13.3113 39.6494L14.1441 38.5672C17.4976 40.9627 21.4519 42.2271 25.6016 42.2271C30.876 42.2271 35.8376 40.1666 39.5725 36.4254C43.3071 32.6842 45.3565 27.7212 45.3434 22.4503C45.3163 11.6275 36.4827 2.80058 25.6517 2.77353C25.6345 2.77353 25.6175 2.77344 25.6002 2.77344C22.451 2.77344 19.439 3.49623 16.6472 4.92192C13.9716 6.28826 11.6022 8.28452 9.79509 10.6948C9.56164 11.0062 9.62508 11.4478 9.93662 11.681C10.2482 11.9141 10.6901 11.8508 10.9236 11.5396C14.3792 6.9302 19.8638 4.18222 25.6032 4.18222C25.6179 4.18222 25.6332 4.18232 25.6481 4.18232C35.7054 4.20748 43.9082 12.4039 43.9333 22.4536C43.9455 27.3475 42.0423 31.9561 38.5741 35.4302C35.1058 38.9046 30.4986 40.818 25.6015 40.818C21.6446 40.818 17.8799 39.5805 14.7143 37.2393C14.2479 36.8943 13.5799 36.9888 13.2251 37.4498L11.9843 39.0621C11.8073 39.292 11.7318 39.577 11.7718 39.8643C11.812 40.1528 11.9634 40.4075 12.1976 40.5812C16.0943 43.4721 20.7292 45.0001 25.6015 45.0001C31.6161 45.0001 37.2706 42.6597 41.5236 38.4101C45.7766 34.1605 48.1188 28.5103 48.1188 22.5004C48.1188 19.5404 47.5478 16.6553 46.4219 13.9252Z" fill="#90C12D"/>
<path d="M9.22553 19.0953C9.0918 18.8696 8.878 18.7094 8.62369 18.6445C8.36939 18.5793 8.10503 18.6173 7.8792 18.7509L7.62386 18.9023C7.94705 17.2844 8.48846 15.7223 9.24 14.2417C9.41612 13.8948 9.2775 13.4708 8.93016 13.2948C8.58338 13.1189 8.15878 13.2572 7.98257 13.6044C6.93284 15.672 6.26381 17.8877 5.99371 20.19C5.96251 20.456 6.08506 20.7168 6.30986 20.8627C6.53465 21.0086 6.82288 21.0146 7.05341 20.878L8.2303 20.1809L8.9264 21.3546L4.9015 23.7383L1.58642 20.733L2.50365 19.7227L3.44972 20.5802C3.64604 20.758 3.92525 20.8109 4.17298 20.7173C4.42061 20.6235 4.59494 20.399 4.62407 20.136C5.15468 15.3511 7.24682 11.0114 10.6744 7.58642C14.642 3.62188 19.9164 1.42803 25.526 1.40907C25.5501 1.40897 25.5742 1.40897 25.5983 1.40897C29.4575 1.40897 33.2203 2.44936 36.4844 4.41961C36.8176 4.62066 37.2511 4.51399 37.4524 4.18081C37.6537 3.84781 37.5467 3.41481 37.2134 3.21357C33.7291 1.11035 29.7148 0 25.5982 0C25.5727 0 25.5466 -5.15888e-08 25.5211 9.38548e-05C22.5592 0.0100479 19.6739 0.590765 16.9455 1.72562C14.2173 2.86048 11.7719 4.49708 9.67719 6.59007C6.34275 9.92206 4.1929 14.0661 3.41072 18.6427L3.13443 18.3922C2.94008 18.216 2.68953 18.1271 2.4264 18.1385C2.1642 18.1514 1.92267 18.2653 1.74646 18.4596L0.255029 20.1026C0.0786316 20.2968 -0.0115875 20.5481 0.00119352 20.8101C0.0139746 21.0721 0.128064 21.3135 0.322505 21.4895L4.13746 24.9479C4.34139 25.1327 4.5987 25.2277 4.85864 25.2277C5.04679 25.2277 5.23644 25.1779 5.40776 25.0763L10.0132 22.3488C10.4791 22.0729 10.6336 21.4695 10.3575 21.0037L9.22553 19.0953Z" fill="#90C12D"/>
<path d="M32.7498 24.9636C33.4067 24.9636 33.9391 24.4315 33.9391 23.7752C33.9391 23.1189 33.4067 22.5868 32.7498 22.5868C32.093 22.5868 31.5605 23.1189 31.5605 23.7752C31.5605 24.4315 32.093 24.9636 32.7498 24.9636Z" fill="#90C12D"/>
</svg>
